<?xml version="1.0" encoding="utf-8"?>
<!-- Generator: Adobe Illustrator 21.0.0, SVG Export Plug-In . SVG Version: 6.00 Build 0)  -->
<svg version="1.1" xmlns="http://www.w3.org/2000/svg" xmlns:xlink="http://www.w3.org/1999/xlink" x="0px" y="0px"
	 viewBox="0 0 200 90" style="enable-background:new 0 0 200 90;" xml:space="preserve">
<style type="text/css">
	.st0{display:none;}
	.st1{display:inline;fill:none;stroke:#7A7A7A;stroke-width:5;stroke-linecap:round;stroke-linejoin:round;stroke-miterlimit:10;}
	.st2{display:inline;fill:#7A7A7A;}
	.st3{display:inline;opacity:0.3;fill:#EC008C;}
	.st4{fill:#7A7A7A;}
	.st5{fill:#FFFFFF;}
	.st6{fill:none;stroke:#7A7A7A;stroke-width:2;stroke-linecap:round;stroke-linejoin:round;stroke-miterlimit:10;}
	.st7{fill:#787878;}
	.st8{fill:#7A7A7A;stroke:#7A7A7A;stroke-width:3;stroke-linecap:round;stroke-miterlimit:10;}
	.st9{fill:none;stroke:#7A7A7A;stroke-linecap:round;stroke-linejoin:round;stroke-miterlimit:10;}
</style>
<g id="Layer_1" class="st0">
	<rect x="-228" class="st3" width="659" height="10"/>
	
		<rect x="-40.3" y="40.3" transform="matrix(-1.836970e-16 1 -1 -1.836970e-16 50.2744 40.2744)" class="st3" width="90.5" height="10"/>
	
		<rect x="149.7" y="40.3" transform="matrix(-1.836970e-16 1 -1 -1.836970e-16 240.2744 -149.7256)" class="st3" width="90.5" height="10"/>
	<rect x="-228" y="79.9" class="st3" width="659" height="10"/>
</g>
<g id="Layer_2">
	<g>
		<g>
			<path class="st4" d="M139.2,20.3l-36.3,7c-1,0.2-1.7,1.2-1.5,2.2l7.8,40.1c0.2,1,1.2,1.7,2.2,1.5l36.3-7c1-0.2,1.7-1.2,1.5-2.2
				l-7.8-40.1C141.3,20.8,140.3,20.1,139.2,20.3z"/>
			<path class="st5" d="M145.4,59c0.2,1-0.5,2-1.5,2.2l-30,5.8c-1,0.2-2-0.5-2.2-1.5l-6.4-33.2c-0.2-1,0.5-2,1.5-2.2l30-5.8
				c1-0.2,2,0.5,2.2,1.5L145.4,59z"/>
		</g>
	</g>
	<g>
		<g>
			<path class="st4" d="M60.6,21.5l-9.9,39.6c-0.3,1,0.4,2,1.4,2.3l35.8,9c1,0.3,2-0.4,2.3-1.4l9.9-39.6c0.3-1-0.4-2-1.4-2.3
				l-35.8-9C61.9,19.9,60.8,20.5,60.6,21.5z"/>
			<path class="st5" d="M62.8,25.7c0.3-1,1.3-1.6,2.3-1.4l29.6,7.4c1,0.3,1.6,1.3,1.4,2.3l-8.2,32.8c-0.3,1-1.3,1.6-2.3,1.4L56,60.8
				c-1-0.3-1.6-1.3-1.4-2.3L62.8,25.7z"/>
		</g>
		<line class="st6" x1="62.4" y1="42.8" x2="88.5" y2="49.8"/>
		<line class="st6" x1="60.9" y1="48.4" x2="87" y2="55.4"/>
		<line class="st6" x1="59.3" y1="53.9" x2="85.4" y2="60.9"/>
	</g>
	<g>
		<path class="st5" d="M122,71.3H80.4c-1.1,0-2-0.9-2-2V23.3c0-1.1,0.9-2,2-2H122c1.1,0,2,0.9,2,2v45.9
			C124,70.4,123.1,71.3,122,71.3z"/>
		<g>
			<path class="st4" d="M122,19.5l-5.3,0c-0.9-1.7-1.4-3.4-2.3-3.8c-1.2-0.6-3-0.1-4.4-0.1c-1-4-3.4-5.5-7.9-5.6
				c-4.6,0-7.1,1.6-8.1,5.6c-1.5,0-3.2-0.5-4.4,0.1c-1,0.5-1.4,2.2-2.3,3.9l-7.1,0c-1.8,0-3.3,1.5-3.3,3.4l0,38.9l0,7.9
				c0,1.9,1.5,3.4,3.3,3.4l41.9,0c1.8,0,3.3-1.5,3.3-3.4V22.9C125.3,21.1,123.8,19.5,122,19.5z M122.1,69.8c0,0.1-0.1,0.1-0.1,0.1
				l-41.9,0c0,0-0.1-0.1-0.1-0.1V23c0-0.1,0.1-0.1,0.1-0.1l7.6,0c0.9,4,0.9,4,5.2,4c6.2,0,12.3,0,18.5,0c4,0,4.1,0,4.6-4.1l6,0
				c0,0,0.1,0.1,0.1,0.1V69.8z"/>
			<polygon class="st4" points="89.7,60.4 94.5,60.4 94.5,49.1 89.7,52.8 			"/>
			<polygon class="st4" points="99.4,60.4 104.3,60.5 104.3,49.8 99.4,48.4 			"/>
			<path class="st4" d="M116.1,36.1h-5c0,0-0.1,0-0.1,0c0,0,0,0-0.1,0c0,0,0,0-0.1,0c0,0,0,0-0.1,0c0,0,0,0-0.1,0
				c-0.6,0.1-1,0.7-1,1.3c0.1,0.6,0.7,1,1.3,1h2.3l-7.7,7.6L96.6,43c-0.2-0.1-0.4-0.2-0.7-0.1c-0.2,0-0.4,0.1-0.6,0.2l-10.1,7.8
				c0,0-0.1,0.1-0.1,0.1c-0.5,0.4-0.5,1.1-0.1,1.6c0.4,0.5,1.1,0.5,1.6,0.1l9.6-7.5l9.3,3.1c0.6,0.2,0.9,0.2,1.4-0.2l8.2-8.2v2.3
				c0,0,0,0,0,0c0,0.6,0.5,1.1,1.1,1.1c0.6,0,1.1-0.5,1.1-1.1v-5C117.2,36.6,116.7,36.1,116.1,36.1z"/>
			<polygon class="st4" points="109.2,60.4 114,60.4 114,43.9 109.2,48.7 			"/>
		</g>
	</g>
</g>
</svg>
